<?xml version="1.0" encoding="UTF-8"?>
<!-- ============================================================
     TOMOPET | assets/hero-dog.svg
     홈 캐릭터 (임시)

     [확인 필요] 자체 제작 임시 일러스트입니다.
     다른 서비스의 캐릭터를 가져다 쓰면 저작권 침해가 되므로
     직접 그리거나 라이선스가 확인된 소재를 쓰세요.

     hero__character 가 128px 원형 배경을 담당하므로
     이 파일은 캐릭터만 그립니다.
     ============================================================ -->
<svg xmlns="http://www.w3.org/2000/svg" viewBox="0 0 128 128" role="img" aria-label="TOMOPET 캐릭터">
  <title>TOMOPET 캐릭터</title>

  <!-- 귀 -->
  <ellipse cx="40" cy="46" rx="9" ry="15" transform="rotate(-16 40 46)" fill="#A8400E"/>
  <ellipse cx="88" cy="46" rx="9" ry="15" transform="rotate(16 88 46)" fill="#A8400E"/>

  <!-- 얼굴 -->
  <ellipse cx="64" cy="58" rx="27" ry="25" fill="#F2701F"/>

  <!-- 주둥이 -->
  <ellipse cx="64" cy="68" rx="15" ry="12" fill="#FBEDE2"/>

  <!-- 눈 -->
  <circle cx="55" cy="54" r="3.4" fill="#2E2019"/>
  <circle cx="73" cy="54" r="3.4" fill="#2E2019"/>
  <circle cx="56.2" cy="52.8" r="1.1" fill="#FFFFFF"/>
  <circle cx="74.2" cy="52.8" r="1.1" fill="#FFFFFF"/>

  <!-- 코 -->
  <ellipse cx="64" cy="63" rx="4.2" ry="3.2" fill="#2E2019"/>

  <!-- 입 -->
  <path d="M64 66.5v3.5M64 70a4.5 4.5 0 0 1-4.5 4.5M64 70a4.5 4.5 0 0 0 4.5 4.5"
        stroke="#2E2019" stroke-width="1.8" stroke-linecap="round" fill="none"/>

  <!-- 밥그릇 -->
  <ellipse cx="64" cy="98" rx="26" ry="5" fill="#EDE0D4"/>
  <path d="M42 90 Q64 82 86 90 L82 102 Q64 108 46 102 Z" fill="#1F7A52"/>
  <ellipse cx="64" cy="90" rx="22" ry="5.5" fill="#2F9166"/>

  <!-- 사료 -->
  <circle cx="55" cy="88" r="3" fill="#8F3109"/>
  <circle cx="64" cy="86.5" r="3.4" fill="#A8400E"/>
  <circle cx="73" cy="88" r="3" fill="#8F3109"/>
  <circle cx="59.5" cy="91" r="2.6" fill="#A8400E"/>
  <circle cx="68.5" cy="91" r="2.6" fill="#8F3109"/>
</svg>
